<?xml version="1.0" encoding="utf-8"?>
<!-- Generator: Adobe Illustrator 16.0.0, SVG Export Plug-In . SVG Version: 6.00 Build 0)  -->
<!DOCTYPE svg PUBLIC "-//W3C//DTD SVG 1.1//EN" "http://www.w3.org/Graphics/SVG/1.1/DTD/svg11.dtd">
<svg version="1.1" id="Capa_1" xmlns="http://www.w3.org/2000/svg" xmlns:xlink="http://www.w3.org/1999/xlink" x="0px" y="0px"
	 width="512px" height="512px" viewBox="0 0 512 512" enable-background="new 0 0 512 512" xml:space="preserve">
<g>
	<g>
		<path fill="#666666" d="M61.766,480.544c-9.724,0-19.155-1.562-28.052-4.641l-20.261-7.01l15.568-14.741
			c20.606-19.513,25.806-42.02,26.145-58.877C19.552,355.789,0,306.525,0,256C-0.006,132.188,114.836,31.456,255.994,31.456
			C397.15,31.456,512,132.188,512,256c0,123.805-114.85,224.531-256.006,224.531c-42.026,0-83.485-9.105-120.434-26.405
			C121.638,463.986,93.515,480.544,61.766,480.544z M132.507,423.563l7.472,3.781c35.126,17.762,75.245,27.16,116.008,27.16
			c126.806,0,229.972-89.05,229.972-198.498c0-109.46-103.166-198.51-229.972-198.51c-126.806,0-229.966,89.05-229.966,198.504
			c0,45.488,18.315,89.961,51.58,125.218l3.385,3.586l0.156,4.927c0.573,17.697-2.603,41.694-18.334,64.767
			c30.148-0.481,57.861-21.465,63.159-25.702L132.507,423.563z"/>
		<path fill="#666666" d="M131.824,317.414c-9.548,0-17.3-0.748-23.288-2.252c-5.975-1.49-10.107-3.025-12.379-4.588
			c-0.573-0.572-0.788-1.881-0.651-3.951c0.136-2.05,0.462-4.197,0.963-6.397c0.495-2.2,1.139-4.179,1.92-5.864
			c0.781-1.705,1.523-2.5,2.245-2.35c3.704,1.282,7.726,2.531,12.067,3.736c4.341,1.203,9.86,1.809,16.551,1.809
			c6.84,0,12.633-0.982,17.417-2.987c4.764-1.998,7.159-5.558,7.159-10.681c0-4.432-1.575-8.018-4.706-10.791
			c-3.131-2.772-8.761-5.734-16.877-8.852c-4.419-1.725-8.578-3.605-12.496-5.676c-3.925-2.057-7.368-4.484-10.362-7.263
			c-2.994-2.772-5.337-6.085-7.048-9.925c-1.712-3.84-2.571-8.402-2.571-13.674c0-4.27,0.827-8.331,2.46-12.178
			c1.634-3.846,4.166-7.159,7.583-9.932c3.417-2.772,7.797-4.985,13.141-6.619c5.343-1.64,11.715-2.46,19.122-2.46
			c4.836,0,8.865,0.11,12.067,0.319c3.202,0.215,5.832,0.501,7.908,0.859c2.057,0.358,3.736,0.749,5.018,1.178
			s2.493,0.781,3.632,1.067c0.996,0.423,1.497,1.673,1.497,3.736c0,2.063-0.293,4.27-0.859,6.626
			c-0.566,2.343-1.354,4.413-2.343,6.189c-1.002,1.783-1.998,2.532-2.994,2.246c-2.421-0.709-5.734-1.491-9.932-2.343
			c-4.205-0.859-8.292-1.282-12.281-1.282c-8.123,0-13.707,1.146-16.766,3.417c-3.065,2.278-4.595,5.337-4.595,9.184
			c0,4.133,1.712,7.446,5.129,9.932s8.76,5.018,16.018,7.583c11.533,4.556,20.046,9.789,25.526,15.698
			c5.48,5.91,8.227,13.349,8.227,22.324c0,6.697-1.282,12.256-3.84,16.675c-2.571,4.413-5.988,7.908-10.257,10.453
			c-4.27,2.577-9.151,4.387-14.631,5.454C143.109,316.881,137.519,317.414,131.824,317.414z"/>
		<path fill="#666666" d="M285.835,316.348c-2.987,0-4.946-0.495-5.864-1.498c-0.938-0.988-1.387-2.908-1.387-5.772v-74.764
			c-5.694,9.255-10.088,16.408-13.153,21.465c-3.071,5.063-5.291,8.767-6.724,11.117c-1.425,2.337-2.284,3.735-2.577,4.159
			c-0.28,0.43-0.41,0.723-0.41,0.865c-1.276,2.135-2.174,3.521-2.668,4.166c-0.508,0.656-1.542,0.956-3.104,0.956h-3.417
			c-1.849,0-3.066-0.319-3.632-0.956c-0.566-0.645-1.425-2.031-2.564-4.166l-21.791-37.164v75.623c0,1.855-0.319,3.319-0.963,4.387
			c-0.638,1.067-2.311,1.602-5.018,1.602H203.6c-1.998,0-3.736-0.319-5.239-0.964c-1.49-0.638-2.245-2.733-2.245-6.307V206.555
			c0-2.851,0.534-4.738,1.601-5.663c1.067-0.924,2.597-1.386,4.595-1.386h10.681c1.562,0,2.883,0.208,3.951,0.638
			c1.067,0.43,2.167,1.497,3.313,3.203l28.403,45.286l28.41-44.857c0.859-1.568,1.881-2.668,3.111-3.313
			c1.217-0.645,2.375-0.957,3.521-0.957h11.755c2.707,0,4.263,0.566,4.705,1.705c0.43,1.146,0.638,2.994,0.638,5.559v103.375
			c0,2.135-0.279,3.71-0.853,4.712c-0.572,1.003-2.213,1.491-4.907,1.491H285.835L285.835,316.348z"/>
		<path fill="#666666" d="M356.979,317.414c-9.554,0-17.3-0.748-23.287-2.252c-5.975-1.49-10.114-3.025-12.379-4.588
			c-0.573-0.572-0.788-1.881-0.651-3.951c0.137-2.05,0.449-4.197,0.957-6.397c0.494-2.2,1.133-4.179,1.92-5.864
			c0.774-1.712,1.517-2.5,2.245-2.35c3.704,1.282,7.732,2.531,12.067,3.736c4.334,1.21,9.854,1.809,16.551,1.809
			c6.841,0,12.627-0.982,17.417-2.987c4.758-1.998,7.166-5.558,7.166-10.681c0-4.432-1.575-8.018-4.712-10.791
			c-3.138-2.772-8.761-5.734-16.884-8.852c-4.419-1.725-8.571-3.605-12.496-5.676c-3.925-2.057-7.368-4.484-10.368-7.263
			c-2.987-2.772-5.33-6.085-7.042-9.925c-1.719-3.847-2.571-8.402-2.571-13.674c0-4.27,0.827-8.331,2.454-12.178
			c1.64-3.846,4.172-7.159,7.589-9.932c3.417-2.772,7.791-4.985,13.134-6.619c5.351-1.64,11.729-2.46,19.122-2.46
			c4.843,0,8.871,0.11,12.067,0.319c3.202,0.215,5.831,0.501,7.914,0.859c2.05,0.358,3.729,0.749,5.019,1.178
			c1.275,0.423,2.492,0.781,3.638,1.067c0.989,0.423,1.49,1.673,1.49,3.736c0,2.063-0.293,4.27-0.865,6.626
			c-0.56,2.343-1.348,4.413-2.33,6.189c-1.002,1.783-2.005,2.532-3,2.246c-2.415-0.709-5.741-1.491-9.926-2.343
			c-4.205-0.859-8.299-1.282-12.282-1.282c-8.122,0-13.713,1.146-16.766,3.417c-3.065,2.278-4.602,5.337-4.602,9.184
			c0,4.133,1.719,7.446,5.136,9.932c3.41,2.486,8.76,5.018,16.017,7.583c11.527,4.556,20.047,9.789,25.527,15.698
			c5.479,5.91,8.227,13.349,8.227,22.324c0,6.697-1.282,12.256-3.84,16.675c-2.571,4.413-5.988,7.908-10.258,10.453
			c-4.27,2.577-9.151,4.387-14.631,5.454C368.246,316.881,362.675,317.414,356.979,317.414z"/>
	</g>
</g>
</svg>
